<svg style="position: absolute; width: 0; height: 0;" width="32" height="32" version="1.1" xmlns="http://www.w3.org/2000/svg" xmlns:xlink="http://www.w3.org/1999/xlink">
<defs>
<symbol id="icon-ascraeus" viewBox="0 0 32 32">
<title>ascraeus</title>
<path class="path1" d="M8.873 8.836c-3.898 3.898-7.091 7.12-7.091 7.164 0 0.036 0.902 0.975 2 2.073l2 2 10.255-10.255 10.218 10.218 2-2c1.098-1.098 1.993-2.022 1.985-2.051-0.029-0.080-14.189-14.24-14.24-14.24-0.022 0-3.229 3.193-7.127 7.091z"></path>
<path fill="#901717" class="path2" d="M12.16 18.931l-3.796 3.796 7.636 7.636 7.636-7.636-3.796-3.796c-2.095-2.095-3.818-3.804-3.84-3.804s-1.745 1.709-3.84 3.804z"></path>
</symbol>
<symbol id="icon-circle-right" viewBox="0 0 32 32">
<title>circle-right</title>
<path class="path1" d="M16 0c-8.837 0-16 7.163-16 16s7.163 16 16 16 16-7.163 16-16-7.163-16-16-16zM16 29c-7.18 0-13-5.82-13-13s5.82-13 13-13 13 5.82 13 13-5.82 13-13 13z"></path>
<path class="path2" d="M11.086 22.086l2.829 2.829 8.914-8.914-8.914-8.914-2.828 2.828 6.086 6.086z"></path>
</symbol>
<symbol id="icon-book" viewBox="0 0 32 32">
<title>book</title>
<path class="path1" d="M28 4v26h-21c-1.657 0-3-1.343-3-3s1.343-3 3-3h19v-24h-20c-2.2 0-4 1.8-4 4v24c0 2.2 1.8 4 4 4h24v-28h-2z"></path>
<path class="path2" d="M7.002 26v0c-0.001 0-0.001 0-0.002 0-0.552 0-1 0.448-1 1s0.448 1 1 1c0.001 0 0.001-0 0.002-0v0h18.997v-2h-18.997z"></path>
</symbol>
<symbol id="icon-price-tag" viewBox="0 0 32 32">
<title>price-tag</title>
<path class="path1" d="M1.5 0h12c0.825 0 1.977 0.477 2.561 1.061l14.879 14.879c0.583 0.583 0.583 1.538 0 2.121l-12.879 12.879c-0.583 0.583-1.538 0.583-2.121 0l-14.879-14.879c-0.583-0.583-1.061-1.736-1.061-2.561v-12c0-0.825 0.675-1.5 1.5-1.5zM9 12c1.657 0 3-1.343 3-3s-1.343-3-3-3-3 1.343-3 3 1.343 3 3 3z"></path>
</symbol>
<symbol id="icon-drawer" viewBox="0 0 32 32">
<title>drawer</title>
<path class="path1" d="M31.781 20.375l-8-10c-0.19-0.237-0.477-0.375-0.781-0.375h-14c-0.304 0-0.591 0.138-0.781 0.375l-8 10c-0.142 0.177-0.219 0.398-0.219 0.625v9c0 1.105 0.895 2 2 2h28c1.105 0 2-0.895 2-2v-9c0-0.227-0.077-0.447-0.219-0.625zM30 22h-7l-4 4h-6l-4-4h-7v-0.649l7.481-9.351h13.039l7.481 9.351v0.649z"></path>
<path class="path2" d="M23 16h-14c-0.552 0-1-0.448-1-1s0.448-1 1-1h14c0.552 0 1 0.448 1 1s-0.448 1-1 1z"></path>
<path class="path3" d="M25 20h-18c-0.552 0-1-0.448-1-1s0.448-1 1-1h18c0.552 0 1 0.448 1 1s-0.448 1-1 1z"></path>
</symbol>
<symbol id="icon-rocket" viewBox="0 0 32 32">
<title>rocket</title>
<path class="path1" d="M22 2l-10 10h-6l-6 8c0 0 6.357-1.77 10.065-0.94l-10.065 12.94 13.184-10.255c1.839 4.208-1.184 10.255-1.184 10.255l8-6v-6l10-10 2-10-10 2z"></path>
</symbol>
<symbol id="icon-link" viewBox="0 0 32 32">
<title>link</title>
<path class="path1" d="M13.757 19.868c-0.416 0-0.832-0.159-1.149-0.476-2.973-2.973-2.973-7.81 0-10.783l6-6c1.44-1.44 3.355-2.233 5.392-2.233s3.951 0.793 5.392 2.233c2.973 2.973 2.973 7.81 0 10.783l-2.743 2.743c-0.635 0.635-1.663 0.635-2.298 0s-0.635-1.663 0-2.298l2.743-2.743c1.706-1.706 1.706-4.481 0-6.187-0.826-0.826-1.925-1.281-3.094-1.281s-2.267 0.455-3.094 1.281l-6 6c-1.706 1.706-1.706 4.481 0 6.187 0.635 0.635 0.635 1.663 0 2.298-0.317 0.317-0.733 0.476-1.149 0.476z"></path>
<path class="path2" d="M8 31.625c-2.037 0-3.952-0.793-5.392-2.233-2.973-2.973-2.973-7.81 0-10.783l2.743-2.743c0.635-0.635 1.664-0.635 2.298 0s0.635 1.663 0 2.298l-2.743 2.743c-1.706 1.706-1.706 4.481 0 6.187 0.826 0.826 1.925 1.281 3.094 1.281s2.267-0.455 3.094-1.281l6-6c1.706-1.706 1.706-4.481 0-6.187-0.635-0.635-0.635-1.663 0-2.298s1.663-0.635 2.298 0c2.973 2.973 2.973 7.81 0 10.783l-6 6c-1.44 1.44-3.355 2.233-5.392 2.233z"></path>
</symbol>
<symbol id="icon-info" viewBox="0 0 32 32">
<title>info</title>
<path class="path1" d="M14 9.5c0-0.825 0.675-1.5 1.5-1.5h1c0.825 0 1.5 0.675 1.5 1.5v1c0 0.825-0.675 1.5-1.5 1.5h-1c-0.825 0-1.5-0.675-1.5-1.5v-1z"></path>
<path class="path2" d="M20 24h-8v-2h2v-6h-2v-2h6v8h2z"></path>
<path class="path3" d="M16 0c-8.837 0-16 7.163-16 16s7.163 16 16 16 16-7.163 16-16-7.163-16-16-16zM16 29c-7.18 0-13-5.82-13-13s5.82-13 13-13 13 5.82 13 13-5.82 13-13 13z"></path>
</symbol>
<symbol id="icon-infinite" viewBox="0 0 32 32">
<title>infinite</title>
<path class="path1" d="M24.5 23.5c-2.003 0-3.887-0.78-5.303-2.197l-3.197-3.196-3.196 3.196c-1.417 1.417-3.3 2.197-5.303 2.197s-3.887-0.78-5.304-2.197c-1.417-1.417-2.197-3.3-2.197-5.303s0.78-3.887 2.197-5.304c1.417-1.417 3.3-2.197 5.304-2.197s3.887 0.78 5.303 2.197l3.196 3.196 3.196-3.196c1.417-1.417 3.3-2.197 5.303-2.197s3.887 0.78 5.303 2.197c1.417 1.417 2.197 3.3 2.197 5.304s-0.78 3.887-2.197 5.303c-1.416 1.417-3.3 2.197-5.303 2.197zM21.304 19.197c0.854 0.853 1.989 1.324 3.196 1.323s2.342-0.47 3.196-1.324c0.854-0.854 1.324-1.989 1.324-3.196s-0.47-2.342-1.324-3.196c-0.854-0.854-1.989-1.324-3.196-1.324s-2.342 0.47-3.196 1.324l-3.196 3.196 3.196 3.197zM7.5 11.48c-1.207 0-2.342 0.47-3.196 1.324s-1.324 1.989-1.324 3.196c0 1.207 0.47 2.342 1.324 3.196s1.989 1.324 3.196 1.324c1.207 0 2.342-0.47 3.196-1.324l3.196-3.196-3.196-3.196c-0.854-0.854-1.989-1.324-3.196-1.324v0z"></path>
</symbol>
<symbol id="icon-right" viewBox="0 0 32 32">
<title>right</title>
<path class="path1" d="M11.086 22.086l2.829 2.829 8.914-8.914-8.914-8.914-2.828 2.828 6.086 6.086z"></path>
</symbol>
<symbol id="icon-circle-left" viewBox="0 0 32 32">
<title>circle-left</title>
<path class="path1" d="M16 32c8.837 0 16-7.163 16-16s-7.163-16-16-16-16 7.163-16 16 7.163 16 16 16zM16 3c7.18 0 13 5.82 13 13s-5.82 13-13 13-13-5.82-13-13 5.82-13 13-13z"></path>
<path class="path2" d="M20.914 9.914l-2.829-2.829-8.914 8.914 8.914 8.914 2.828-2.828-6.086-6.086z"></path>
</symbol>
<symbol id="icon-google-plus" viewBox="0 0 32 32">
<title>google-plus</title>
<path class="path1" d="M17.471 2c0 0-6.28 0-8.373 0-3.754 0-7.287 2.844-7.287 6.138 0 3.366 2.559 6.083 6.378 6.083 0.266 0 0.524-0.005 0.776-0.024-0.248 0.475-0.425 1.009-0.425 1.564 0 0.936 0.503 1.694 1.14 2.313-0.481 0-0.945 0.014-1.452 0.014-4.649-0-8.228 2.961-8.228 6.032 0 3.024 3.923 4.916 8.573 4.916 5.301 0 8.228-3.008 8.228-6.032 0-2.425-0.715-3.877-2.928-5.442-0.757-0.536-2.204-1.839-2.204-2.604 0-0.897 0.256-1.34 1.607-2.395 1.385-1.082 2.365-2.603 2.365-4.372 0-2.106-0.938-4.159-2.699-4.837h2.655l1.874-1.355zM14.546 22.483c0.066 0.28 0.103 0.569 0.103 0.863 0 2.444-1.575 4.353-6.093 4.353-3.214 0-5.535-2.035-5.535-4.478 0-2.395 2.879-4.389 6.093-4.354 0.75 0.008 1.449 0.129 2.083 0.334 1.745 1.213 2.996 1.899 3.349 3.281zM9.401 13.368c-2.157-0.065-4.207-2.413-4.58-5.246s1.074-5.001 3.231-4.937c2.157 0.065 4.207 2.338 4.58 5.171s-1.075 5.077-3.231 5.012zM26 8v-6h-2v6h-6v2h6v6h2v-6h6v-2z"></path>
</symbol>
<symbol id="icon-twitter" viewBox="0 0 32 32">
<title>twitter</title>
<path class="path1" d="M32 7.075c-1.175 0.525-2.444 0.875-3.769 1.031 1.356-0.813 2.394-2.1 2.887-3.631-1.269 0.75-2.675 1.3-4.169 1.594-1.2-1.275-2.906-2.069-4.794-2.069-3.625 0-6.563 2.938-6.563 6.563 0 0.512 0.056 1.012 0.169 1.494-5.456-0.275-10.294-2.888-13.531-6.862-0.563 0.969-0.887 2.1-0.887 3.3 0 2.275 1.156 4.287 2.919 5.463-1.075-0.031-2.087-0.331-2.975-0.819 0 0.025 0 0.056 0 0.081 0 3.181 2.263 5.838 5.269 6.437-0.55 0.15-1.131 0.231-1.731 0.231-0.425 0-0.831-0.044-1.237-0.119 0.838 2.606 3.263 4.506 6.131 4.563-2.25 1.762-5.075 2.813-8.156 2.813-0.531 0-1.050-0.031-1.569-0.094 2.913 1.869 6.362 2.95 10.069 2.95 12.075 0 18.681-10.006 18.681-18.681 0-0.287-0.006-0.569-0.019-0.85 1.281-0.919 2.394-2.075 3.275-3.394z"></path>
</symbol>
<symbol id="icon-rss" viewBox="0 0 32 32">
<title>rss</title>
<path class="path1" d="M4.259 23.467c-2.35 0-4.259 1.917-4.259 4.252 0 2.349 1.909 4.244 4.259 4.244 2.358 0 4.265-1.895 4.265-4.244-0-2.336-1.907-4.252-4.265-4.252zM0.005 10.873v6.133c3.993 0 7.749 1.562 10.577 4.391 2.825 2.822 4.384 6.595 4.384 10.603h6.16c-0-11.651-9.478-21.127-21.121-21.127zM0.012 0v6.136c14.243 0 25.836 11.604 25.836 25.864h6.152c0-17.64-14.352-32-31.988-32z"></path>
</symbol>
<symbol id="icon-left" viewBox="0 0 32 32">
<title>left</title>
<path class="path1" d="M20.914 9.914l-2.829-2.829-8.914 8.914 8.914 8.914 2.828-2.828-6.086-6.086z"></path>
</symbol>
<symbol id="icon-star-empty" viewBox="0 0 32 32">
<title>star-empty</title>
<path class="path1" d="M32 12.408l-11.056-1.607-4.944-10.018-4.944 10.018-11.056 1.607 8 7.798-1.889 11.011 9.889-5.199 9.889 5.199-1.889-11.011 8-7.798zM16 23.547l-6.983 3.671 1.334-7.776-5.65-5.507 7.808-1.134 3.492-7.075 3.492 7.075 7.807 1.134-5.65 5.507 1.334 7.776-6.983-3.671z"></path>
</symbol>
<symbol id="icon-star-half" viewBox="0 0 32 32">
<title>star-half</title>
<path class="path1" d="M32 12.408l-11.056-1.607-4.944-10.018-4.944 10.018-11.056 1.607 8 7.798-1.889 11.011 9.889-5.199 9.889 5.199-1.889-11.011 8-7.798zM16 23.547l-0.029 0.015 0.029-17.837 3.492 7.075 7.807 1.134-5.65 5.507 1.334 7.776-6.983-3.671z"></path>
</symbol>
<symbol id="icon-star-full" viewBox="0 0 32 32">
<title>star-full</title>
<path class="path1" d="M32 12.408l-11.056-1.607-4.944-10.018-4.944 10.018-11.056 1.607 8 7.798-1.889 11.011 9.889-5.199 9.889 5.199-1.889-11.011 8-7.798z"></path>
</symbol>
<symbol id="icon-blog" viewBox="0 0 32 32">
<title>blog</title>
<path class="path1" d="M12 0v3c2.296 0 4.522 0.449 6.616 1.335 2.024 0.856 3.842 2.082 5.405 3.644s2.788 3.381 3.645 5.405c0.886 2.094 1.335 4.32 1.335 6.616h3c0-11.046-8.954-20-20-20z"></path>
<path class="path2" d="M12 6v3c2.938 0 5.701 1.144 7.778 3.222s3.222 4.84 3.222 7.778h3c0-7.732-6.268-14-14-14z"></path>
<path fill="#901717" class="path3" d="M15 12l-2 2-7 2-6 13 0.793 0.793 7.275-7.275c-0.044-0.165-0.068-0.339-0.068-0.518 0-1.105 0.895-2 2-2s2 0.895 2 2-0.895 2-2 2c-0.179 0-0.353-0.024-0.518-0.068l-7.275 7.275 0.793 0.793 13-6 2-7 2-2-5-5z"></path>
</symbol>
<symbol id="icon-power" viewBox="0 0 32 32">
<title>power</title>
<path class="path1" d="M16 2c8.837 0 16 5.82 16 13s-7.163 13-16 13c-0.849 0-1.682-0.054-2.495-0.158-3.437 3.437-7.539 4.053-11.505 4.144v-0.841c2.142-1.049 4-2.961 4-5.145 0-0.305-0.024-0.604-0.068-0.897-3.619-2.383-5.932-6.024-5.932-10.103 0-7.18 7.163-13 16-13z"></path>
</symbol>
<symbol id="icon-telegram" viewBox="0 0 32 32">
<title>telegram</title>
<path d="M16 0c-8.838 0-16 7.162-16 16s7.162 16 16 16 16-7.163 16-16-7.163-16-16-16zM23.863 10.969l-2.625 12.369c-0.181 0.881-0.712 1.087-1.45 0.681l-4-2.956-1.919 1.869c-0.225 0.219-0.4 0.4-0.8 0.4-0.519 0-0.431-0.194-0.606-0.688l-1.363-4.475-3.956-1.231c-0.856-0.262-0.862-0.85 0.194-1.269l15.412-5.95c0.7-0.319 1.381 0.169 1.113 1.25z"></path>
</symbol>
<symbol id="icon-google-plus2" viewBox="0 0 32 32">
<title>google-plus2</title>
<path class="path1" d="M29 0h-26c-1.65 0-3 1.35-3 3v26c0 1.65 1.35 3 3 3h26c1.65 0 3-1.35 3-3v-26c0-1.65-1.35-3-3-3zM12 24c-4.425 0-8-3.575-8-8s3.575-8 8-8c2.162 0 3.969 0.787 5.363 2.094l-2.175 2.088c-0.594-0.569-1.631-1.231-3.188-1.231-2.731 0-4.963 2.263-4.963 5.050s2.231 5.050 4.963 5.050c3.169 0 4.356-2.275 4.538-3.45h-4.537v-2.744h7.556c0.069 0.4 0.125 0.8 0.125 1.325 0 4.575-3.063 7.819-7.681 7.819zM28 16h-2v2h-2v-2h-2v-2h2v-2h2v2h2v2z"></path>
</symbol>
<symbol id="icon-facebook" viewBox="0 0 32 32">
<title>facebook</title>
<path class="path1" d="M29 0h-26c-1.65 0-3 1.35-3 3v26c0 1.65 1.35 3 3 3h13v-14h-4v-4h4v-2c0-3.306 2.694-6 6-6h4v4h-4c-1.1 0-2 0.9-2 2v2h6l-1 4h-5v14h9c1.65 0 3-1.35 3-3v-26c0-1.65-1.35-3-3-3z"></path>
</symbol>
<symbol id="icon-instagram" viewBox="0 0 32 32">
<title>instagram</title>
<path class="path1" d="M16 2.881c4.275 0 4.781 0.019 6.462 0.094 1.563 0.069 2.406 0.331 2.969 0.55 0.744 0.288 1.281 0.638 1.837 1.194 0.563 0.563 0.906 1.094 1.2 1.838 0.219 0.563 0.481 1.412 0.55 2.969 0.075 1.688 0.094 2.194 0.094 6.463s-0.019 4.781-0.094 6.463c-0.069 1.563-0.331 2.406-0.55 2.969-0.288 0.744-0.637 1.281-1.194 1.837-0.563 0.563-1.094 0.906-1.837 1.2-0.563 0.219-1.413 0.481-2.969 0.55-1.688 0.075-2.194 0.094-6.463 0.094s-4.781-0.019-6.463-0.094c-1.563-0.069-2.406-0.331-2.969-0.55-0.744-0.288-1.281-0.637-1.838-1.194-0.563-0.563-0.906-1.094-1.2-1.837-0.219-0.563-0.481-1.413-0.55-2.969-0.075-1.688-0.094-2.194-0.094-6.463s0.019-4.781 0.094-6.463c0.069-1.563 0.331-2.406 0.55-2.969 0.288-0.744 0.638-1.281 1.194-1.838 0.563-0.563 1.094-0.906 1.838-1.2 0.563-0.219 1.412-0.481 2.969-0.55 1.681-0.075 2.188-0.094 6.463-0.094zM16 0c-4.344 0-4.887 0.019-6.594 0.094-1.7 0.075-2.869 0.35-3.881 0.744-1.056 0.412-1.95 0.956-2.837 1.85-0.894 0.888-1.438 1.781-1.85 2.831-0.394 1.019-0.669 2.181-0.744 3.881-0.075 1.713-0.094 2.256-0.094 6.6s0.019 4.887 0.094 6.594c0.075 1.7 0.35 2.869 0.744 3.881 0.413 1.056 0.956 1.95 1.85 2.837 0.887 0.887 1.781 1.438 2.831 1.844 1.019 0.394 2.181 0.669 3.881 0.744 1.706 0.075 2.25 0.094 6.594 0.094s4.888-0.019 6.594-0.094c1.7-0.075 2.869-0.35 3.881-0.744 1.050-0.406 1.944-0.956 2.831-1.844s1.438-1.781 1.844-2.831c0.394-1.019 0.669-2.181 0.744-3.881 0.075-1.706 0.094-2.25 0.094-6.594s-0.019-4.887-0.094-6.594c-0.075-1.7-0.35-2.869-0.744-3.881-0.394-1.063-0.938-1.956-1.831-2.844-0.887-0.887-1.781-1.438-2.831-1.844-1.019-0.394-2.181-0.669-3.881-0.744-1.712-0.081-2.256-0.1-6.6-0.1v0z"></path>
<path class="path2" d="M16 7.781c-4.537 0-8.219 3.681-8.219 8.219s3.681 8.219 8.219 8.219 8.219-3.681 8.219-8.219c0-4.537-3.681-8.219-8.219-8.219zM16 21.331c-2.944 0-5.331-2.387-5.331-5.331s2.387-5.331 5.331-5.331c2.944 0 5.331 2.387 5.331 5.331s-2.387 5.331-5.331 5.331z"></path>
<path class="path3" d="M26.462 7.456c0 1.060-0.859 1.919-1.919 1.919s-1.919-0.859-1.919-1.919c0-1.060 0.859-1.919 1.919-1.919s1.919 0.859 1.919 1.919z"></path>
</symbol>
<symbol id="icon-flickr" viewBox="0 0 32 32">
<title>flickr</title>
<path class="path1" d="M29 0h-26c-1.65 0-3 1.35-3 3v26c0 1.65 1.35 3 3 3h26c1.65 0 3-1.35 3-3v-26c0-1.65-1.35-3-3-3zM9 21c-2.763 0-5-2.238-5-5s2.237-5 5-5 5 2.238 5 5-2.238 5-5 5zM23 21c-2.762 0-5-2.238-5-5s2.238-5 5-5c2.762 0 5 2.238 5 5s-2.238 5-5 5z"></path>
</symbol>
<symbol id="icon-github" viewBox="0 0 32 32">
<title>github</title>
<path class="path1" d="M16 0.395c-8.836 0-16 7.163-16 16 0 7.069 4.585 13.067 10.942 15.182 0.8 0.148 1.094-0.347 1.094-0.77 0-0.381-0.015-1.642-0.022-2.979-4.452 0.968-5.391-1.888-5.391-1.888-0.728-1.849-1.776-2.341-1.776-2.341-1.452-0.993 0.11-0.973 0.11-0.973 1.606 0.113 2.452 1.649 2.452 1.649 1.427 2.446 3.743 1.739 4.656 1.33 0.143-1.034 0.558-1.74 1.016-2.14-3.554-0.404-7.29-1.777-7.29-7.907 0-1.747 0.625-3.174 1.649-4.295-0.166-0.403-0.714-2.030 0.155-4.234 0 0 1.344-0.43 4.401 1.64 1.276-0.355 2.645-0.532 4.005-0.539 1.359 0.006 2.729 0.184 4.008 0.539 3.054-2.070 4.395-1.64 4.395-1.64 0.871 2.204 0.323 3.831 0.157 4.234 1.026 1.12 1.647 2.548 1.647 4.295 0 6.145-3.743 7.498-7.306 7.895 0.574 0.497 1.085 1.47 1.085 2.963 0 2.141-0.019 3.864-0.019 4.391 0 0.426 0.288 0.925 1.099 0.768 6.354-2.118 10.933-8.113 10.933-15.18 0-8.837-7.164-16-16-16z"></path>
</symbol>
<symbol id="icon-tumblr2" viewBox="0 0 32 32">
<title>tumblr2</title>
<path class="path1" d="M29 0h-26c-1.65 0-3 1.35-3 3v26c0 1.65 1.35 3 3 3h26c1.65 0 3-1.35 3-3v-26c0-1.65-1.35-3-3-3zM22.869 25.769c-0.944 0.444-1.8 0.756-2.563 0.938-0.762 0.175-1.594 0.269-2.481 0.269-1.012 0-1.606-0.125-2.381-0.381s-1.438-0.619-1.988-1.087c-0.55-0.475-0.925-0.975-1.137-1.506s-0.319-1.3-0.319-2.313v-7.744h-3v-3.125c0.869-0.281 1.875-0.688 2.488-1.213 0.619-0.525 1.119-1.156 1.488-1.894 0.375-0.737 0.631-1.675 0.775-2.813h3.138v5.1h5.113v3.944h-5.106v5.662c0 1.281-0.019 2.019 0.119 2.381s0.475 0.738 0.844 0.95c0.488 0.294 1.050 0.438 1.675 0.438 1.119 0 2.231-0.363 3.337-1.087v3.481z"></path>
</symbol>
<symbol id="icon-linkedin" viewBox="0 0 32 32">
<title>linkedin</title>
<path class="path1" d="M29 0h-26c-1.65 0-3 1.35-3 3v26c0 1.65 1.35 3 3 3h26c1.65 0 3-1.35 3-3v-26c0-1.65-1.35-3-3-3zM12 26h-4v-14h4v14zM10 10c-1.106 0-2-0.894-2-2s0.894-2 2-2c1.106 0 2 0.894 2 2s-0.894 2-2 2zM26 26h-4v-8c0-1.106-0.894-2-2-2s-2 0.894-2 2v8h-4v-14h4v2.481c0.825-1.131 2.087-2.481 3.5-2.481 2.488 0 4.5 2.238 4.5 5v9z"></path>
</symbol>
<symbol id="icon-key" viewBox="0 0 32 32">
<title>key</title>
<path d="M13 8c0-1.656-1.344-3-3-3s-3 1.344-3 3c0 0.453 0.109 0.891 0.297 1.297-0.406-0.187-0.844-0.297-1.297-0.297-1.656 0-3 1.344-3 3s1.344 3 3 3 3-1.344 3-3c0-0.453-0.109-0.891-0.297-1.297 0.406 0.187 0.844 0.297 1.297 0.297 1.656 0 3-1.344 3-3zM26.297 19c0 0.359-1.437 1.797-1.797 1.797-0.406 0-1.672-1.469-2-1.797l-1.5 1.5 3.437 3.437c0.281 0.281 0.438 0.672 0.438 1.062 0 0.875-1 1.875-1.875 1.875-0.391 0-0.781-0.156-1.062-0.438l-10.484-10.484c-1.641 1.219-3.641 2.047-5.703 2.047-3.406 0-5.75-2.359-5.75-5.75 0-5.125 5.125-10.25 10.25-10.25 3.391 0 5.75 2.344 5.75 5.75 0 2.063-0.828 4.062-2.047 5.703l5.547 5.547 1.5-1.5c-0.328-0.328-1.797-1.594-1.797-2 0-0.359 1.437-1.797 1.797-1.797 0.125 0 0.266 0.063 0.359 0.156 0.578 0.578 4.937 4.688 4.937 5.141z"></path>
</symbol>
<symbol id="icon-books" viewBox="0 0 32 32">
<title>books</title>
<path class="path1" d="M112 64h-96c-8.8 0-16 7.2-16 16v352c0 8.8 7.2 16 16 16h96c8.8 0 16-7.2 16-16v-352c0-8.8-7.2-16-16-16zM96 160h-64v-32h64v32z"></path>
<path class="path2" d="M272 64h-96c-8.8 0-16 7.2-16 16v352c0 8.8 7.2 16 16 16h96c8.8 0 16-7.2 16-16v-352c0-8.8-7.2-16-16-16zM256 160h-64v-32h64v32z"></path>
<path class="path3" d="M382.544 88.74l-85.732 43.197c-7.858 3.959-11.048 13.629-7.089 21.488l143.989 285.774c3.959 7.859 13.629 11.049 21.488 7.089l85.732-43.196c7.858-3.96 11.048-13.63 7.089-21.487l-143.989-285.775c-3.96-7.859-13.63-11.050-21.488-7.090z"></path>
</symbol>
<symbol id="icon-location" viewBox="0 0 32 32">
<title>location</title>
<path d="M16 0c-5.523 0-10 4.477-10 10 0 10 10 22 10 22s10-12 10-22c0-5.523-4.477-10-10-10zM16 16c-3.314 0-6-2.686-6-6s2.686-6 6-6 6 2.686 6 6-2.686 6-6 6z"></path>
</symbol>
<symbol id="icon-swarm" viewBox="0 0 32 32">
<title>swarm</title>
<path d="M13.2 25.644c-0.794-1.792-1.228-3.732-1.276-5.68-1.284 1.986-2.254 3.984-2.9 5.474-0.032 0.060-0.506 1.24-0.644 1.6-0.172 0.44 0.060 0.98 0.512 1.14 0.364 0.14 1.552 0.56 1.626 0.6 1.52 0.5 3.62 1.12 5.94 1.5-1.38-1.32-2.48-2.9-3.26-4.66zM16.28 11.18c-4.51-9.214-14.53-8.884-16.11-4.766-1.214 3.164 4.096 10.7 16.32 5.26l0.004-0.006c-0.040-0.076-0.184-0.4-0.214-0.484zM18.4 10.55c-2.5-6.194 1.87-9.75 4.274-8.826 1.786 0.686 2.75 6.024-4.152 9.1 0-0.046-0.1-0.23-0.12-0.274zM31.214 17.57c-1.046-2.35-2.964-4.030-5.194-4.83-0.224-0.084-0.454-0.12-0.68-0.12-1.16 0-2.276 0.964-2.38 2.168-0.18 2.008 0.22 4.052 1.1 6.020 0.86 1.946 2.088 3.588 3.666 4.794 0.41 0.32 0.912 0.48 1.414 0.48 0.904 0 1.806-0.48 2.164-1.34 0.92-2.2 0.964-4.78-0.090-7.16z"></path>
<path d="M25.974 27.892c-1.93-1.48-3.46-3.466-4.548-5.908-1.104-2.48-1.554-4.984-1.34-7.448 0.060-0.686 0.26-1.348 0.584-1.952l-0.184 0.046c-1.016 0.254-2 0.696-2.874 1.27-1.266 0.834-2.384 2.068-2.864 3.528-0.13 0.394-0.228 0.826-0.26 1.24-0.154 1.972 0.168 4.012 1.028 5.946 0.834 1.872 2.080 3.432 3.58 4.62 0.912 0.73 2.56 1.188 3.908 1.188 1.266 0 2.514-0.36 3.636-0.94 0.35-0.18 1.12-0.66 1.172-0.7-0.668-0.16-1.296-0.46-1.84-0.88z"></path>
</symbol>
<symbol id="icon-masto" viewBox="0 0 32 32">
<title>masto</title>
<path d="M16 0c-4.418 0-8.418 1.791-11.314 4.686-2.905 2.897-4.703 6.904-4.703 11.331 0 8.837 7.163 16 16 16 4.427 0 8.433-1.798 11.33-4.703 2.896-2.896 4.687-6.896 4.687-11.314 0-8.837-7.163-16-16-16zM15.998 8.962h3.428c-0.61 0.43-0.838 1.633-0.868 2.363v6.661c0 1.418-1.142 2.56-2.56 2.56s-2.56-1.142-2.56-2.56v-6.464c0-1.418 1.142-2.56 2.56-2.56zM15.984 10.626c-0.495 0-0.896 0.401-0.896 0.896s0.401 0.896 0.896 0.896 0.896-0.401 0.896-0.896c0-0.495-0.401-0.896-0.896-0.896zM7.054 10.878c1.418 0 2.56 1.142 2.56 2.56v6.597c0.030 0.73 0.258 1.933 0.868 2.363h-3.428c-1.418 0-2.56-1.142-2.56-2.56v-6.4c0-1.418 1.142-2.56 2.56-2.56zM24.946 10.878c1.418 0 2.56 1.142 2.56 2.56v6.4c0 1.418-1.142 2.56-2.56 2.56h-3.428c0.61-0.43 0.838-1.633 0.868-2.363v-6.597c0-1.418 1.142-2.56 2.56-2.56zM7.040 12.544c-0.495 0-0.896 0.401-0.896 0.896s0.401 0.896 0.896 0.896 0.896-0.401 0.896-0.896-0.401-0.896-0.896-0.896zM24.96 12.544c-0.495 0-0.896 0.401-0.896 0.896s0.401 0.896 0.896 0.896 0.896-0.401 0.896-0.896-0.401-0.896-0.896-0.896zM15.984 13.826c-0.495 0-0.896 0.401-0.896 0.896s0.401 0.896 0.896 0.896 0.896-0.401 0.896-0.896c0-0.495-0.401-0.896-0.896-0.896zM7.040 15.742c-0.495 0-0.896 0.401-0.896 0.896s0.401 0.896 0.896 0.896 0.896-0.401 0.896-0.896c0-0.495-0.401-0.896-0.896-0.896zM24.96 15.742c-0.495 0-0.896 0.401-0.896 0.896s0.401 0.896 0.896 0.896 0.896-0.401 0.896-0.896c0-0.495-0.401-0.896-0.896-0.896zM15.984 17.024c-0.495 0-0.896 0.401-0.896 0.896s0.401 0.896 0.896 0.896 0.896-0.401 0.896-0.896-0.401-0.896-0.896-0.896zM7.040 18.942c-0.495 0-0.896 0.401-0.896 0.896s0.401 0.896 0.896 0.896 0.896-0.401 0.896-0.896c0-0.495-0.401-0.896-0.896-0.896zM24.96 18.942c-0.495 0-0.896 0.401-0.896 0.896s0.401 0.896 0.896 0.896 0.896-0.401 0.896-0.896c0-0.495-0.401-0.896-0.896-0.896z"></path>
</symbol>
<symbol id="icon-jsonfeed" viewBox="0 0 32 32">
<title>jsonfeed</title>
<path d="M9.301 25.472l0.042 0.042c1.692-1.692 2.916-1.562 4.959 0.482l3.228 3.228c3.358 3.358 6.495 3.189 10.244-0.56l1.145-1.145-2.434-2.434-0.586 0.586c-2.122 2.122-3.606 2.148-5.636 0.117l-3.788-3.788c-1.953-1.953-3.892-2.148-5.753-0.599l-0.364-0.364c1.588-1.926 1.432-3.723-0.456-5.61l-3.397-3.397c-2.070-2.070-2.057-3.514 0.091-5.662l0.586-0.586-2.421-2.421-1.145 1.145c-3.762 3.762-3.97 6.834-0.69 10.114l2.798 2.798c2.044 2.044 2.174 3.293 0.495 4.972l0.012 0.012c-0.749 0.854-0.716 2.155 0.099 2.97s2.116 0.848 2.97 0.099z"></path>
<path d="M18.019 13.684c0.849 0.849 0.849 2.227 0 3.076s-2.227 0.849-3.076 0c-0.849-0.849-0.849-2.227 0-3.076s2.227-0.849 3.076 0z"></path>
<path d="M23.146 8.558c0.849 0.849 0.849 2.227 0 3.076s-2.227 0.849-3.076 0c-0.849-0.849-0.849-2.227 0-3.076s2.227-0.849 3.076 0z"></path>
<path d="M28.272 3.431c0.849 0.849 0.849 2.227 0 3.076s-2.227 0.849-3.076 0c-0.849-0.849-0.849-2.227 0-3.076s2.227-0.849 3.076 0z"></path>
</symbol>
<symbol id="icon-talk" viewBox="0 0 36 32">
<title>talk</title>
<path d="M15 4c-1.583 0-3.112 0.248-4.543 0.738-1.341 0.459-2.535 1.107-3.547 1.926-1.876 1.518-2.91 3.463-2.91 5.474 0 1.125 0.315 2.217 0.935 3.247 0.646 1.073 1.622 2.056 2.821 2.842 0.951 0.624 1.592 1.623 1.761 2.748 0.028 0.187 0.051 0.375 0.068 0.564 0.085-0.079 0.169-0.16 0.254-0.244 0.754-0.751 1.771-1.166 2.823-1.166 0.167 0 0.335 0.011 0.503 0.032 0.605 0.077 1.223 0.116 1.836 0.116 1.583 0 3.112-0.248 4.543-0.738 1.341-0.459 2.535-1.107 3.547-1.926 1.876-1.518 2.91-3.463 2.91-5.474s-1.033-3.956-2.91-5.474c-1.012-0.819-2.206-1.467-3.547-1.926-1.431-0.49-2.96-0.738-4.543-0.738zM15 0v0c8.284 0 15 5.435 15 12.139s-6.716 12.139-15 12.139c-0.796 0-1.576-0.051-2.339-0.147-3.222 3.209-6.943 3.785-10.661 3.869v-0.785c2.008-0.98 3.625-2.765 3.625-4.804 0-0.285-0.022-0.564-0.063-0.837-3.392-2.225-5.562-5.625-5.562-9.434 0-6.704 6.716-12.139 15-12.139zM31.125 27.209c0 1.748 1.135 3.278 2.875 4.118v0.673c-3.223-0.072-6.181-0.566-8.973-3.316-0.661 0.083-1.337 0.126-2.027 0.126-2.983 0-5.732-0.805-7.925-2.157 4.521-0.016 8.789-1.464 12.026-4.084 1.631-1.32 2.919-2.87 3.825-4.605 0.961-1.84 1.449-3.799 1.449-5.825 0-0.326-0.014-0.651-0.039-0.974 2.268 1.873 3.664 4.426 3.664 7.24 0 3.265-1.88 6.179-4.82 8.086-0.036 0.234-0.055 0.474-0.055 0.718z"></path>
</symbol>
<symbol id="icon-microblog" viewbox="0 0 1024 1024">
	<title>microblog</title>
	<path d="M452.902 1.070c-0.589 0.589-10.862 2.386-22.828 3.991-11.965 1.608-26.363 4.096-31.995 5.532s-14.848 3.776-20.48 5.197c-34.834 8.791-70.835 22.359-103.68 39.068-34.189 17.395-43.52 22.728-43.52 24.865 0 1.208-1.646 2.196-3.658 2.196-2.010 0-5.179 1.516-7.040 3.372-1.859 1.853-6.838 5.596-11.062 8.32-9.434 6.080-12.698 8.648-35.564 27.988-21.852 18.483-39.803 36.385-55.316 55.171-6.336 7.672-13.537 16.182-16 18.913-2.463 2.729-4.48 5.814-4.48 6.856s-1.569 3.464-3.487 5.381c-10.214 10.214-42.324 68.319-52.741 95.439-1.083 2.816-3.187 8-4.68 11.52-29.522 69.624-36.124 199.985-13.484 266.24 1.201 3.52 4.119 13.312 6.484 21.76 2.363 8.448 5.361 17.951 6.661 21.12s3.407 8.351 4.677 11.52c11.776 29.327 43.013 86.011 52.782 95.78 2.081 2.081 3.786 4.639 3.786 5.681s2.076 4.127 4.616 6.856c2.537 2.732 11.203 12.736 19.256 22.236 13.499 15.921 34.772 37.271 50.368 50.55 3.52 2.995 8.796 7.506 11.727 10.020 2.929 2.514 12.721 9.644 21.76 15.844 9.037 6.2 16.817 12.137 17.285 13.194 0.471 1.055 2.486 1.92 4.48 1.92s3.628 1.075 3.628 2.388c0 1.313 2.591 3.195 5.76 4.183 3.167 0.991 6.336 2.506 7.040 3.374 6.945 8.545 79.795 40.691 113.92 50.268 8.448 2.371 18.24 5.228 21.76 6.349 5.791 1.841 19.85 4.575 65.068 12.652 58.243 10.404 173.768-0.571 238.292-22.636 8.448-2.89 17.405-5.281 19.904-5.315 4.014-0.056 36.941 18.849 40.256 23.112 0.704 0.906 9.344 6.666 19.2 12.8 9.856 6.136 18.496 11.896 19.2 12.8 0.704 0.906 9.344 6.666 19.2 12.8 9.856 6.136 18.496 11.899 19.2 12.808s6.464 4.877 12.8 8.817c6.336 3.94 12.096 7.908 12.8 8.817 3.525 4.552 36.393 23.183 40.896 23.183 6.817 0 6.548-7.58-2.501-70.4-1.418-9.856-4.416-32.32-6.661-49.92s-5.056-38.912-6.246-47.36c-6.019-42.688-5.903-48.074 1.196-56.079 3.628-4.091 6.597-8.192 6.597-9.116s2.017-3.945 4.48-6.715c10.286-11.566 53.332-78.121 71.875-111.13 14.29-25.441 36.275-71.084 36.301-75.359 0.010-1.498 1.503-5.601 3.32-9.121s5.358-13.312 7.869-21.76c2.511-8.448 5.537-18.24 6.725-21.76 7.173-21.233 8.947-37.522 8.927-81.92-0.026-47.805-1.836-63.235-12.024-102.4-2.749-10.56-5.635-22.080-6.418-25.6-0.781-3.52-2.26-7.552-3.284-8.96-1.027-1.408-2.629-5.757-3.564-9.669-2.342-9.797-26.004-62.175-29.752-65.851-0.717-0.704-3.597-5.678-6.4-11.052-2.801-5.376-6.822-11.732-8.934-14.124-2.112-2.394-8.251-10.885-13.645-18.872-9.999-14.812-11.082-16.169-31.962-40.097-22.794-26.12-49.262-49.759-79.834-71.291-10.56-7.439-20.411-14.39-21.891-15.444-1.48-1.057-4.936-3.156-7.68-4.669-2.744-1.51-9.021-4.966-13.949-7.68-4.928-2.711-9.536-5.507-10.24-6.211-1.882-1.882-34.788-17.92-36.767-17.92-0.929 0-6.572-2.245-12.541-4.989-28.856-13.266-84.838-28.529-127.142-34.662-24.338-3.528-135.67-5.775-138.647-2.798zM633.516 333.896c5.678 0.893 22.42 3.292 37.204 5.332s34.368 4.897 43.52 6.346c9.152 1.452 28.736 4.306 43.52 6.344 48.049 6.623 62.6 8.901 69.804 10.934 6.912 1.948 5.972 3.075-38.4 46.011-25.016 24.205-59.187 57.393-75.937 73.748l-30.454 29.74 3.218 20.943c1.772 11.52 4.157 26.13 5.304 32.466 1.149 6.336 3.907 22.464 6.131 35.84 2.222 13.376 5.153 30.080 6.51 37.12 2.939 15.242 10.322 60.060 12.124 73.6 1.17 8.796-4.324 14.525-7.368 7.68-0.468-1.057-13.524-8.371-29.012-16.256s-38.528-19.835-51.2-26.555c-25.779-13.673-83.428-43.909-93.775-49.185-6.195-3.159-8.346-2.586-26.88 7.165-11.080 5.829-33.969 17.779-50.865 26.555-16.896 8.778-40.512 21.151-52.48 27.497s-31.839 16.87-44.16 23.388c-12.319 6.518-22.392 10.99-22.385 9.94 0.015-2.028 3.348-21.737 7.793-46.070 1.477-8.097 4.301-24.512 6.272-36.48s4.864-28.672 6.428-37.12c1.567-8.448 4.503-25.728 6.528-38.4 2.028-12.672 4.777-29.148 6.111-36.616 3.090-17.275 5.082-14.264-34.168-51.64-97.336-92.682-115.085-110.976-109.624-112.996 5.309-1.964 24.051-4.913 72.246-11.366 14.784-1.981 34.368-4.836 43.52-6.346 9.152-1.508 28.736-4.362 43.52-6.344 48.927-6.548 47.268-6.062 51.057-14.961 1.884-4.429 23.007-47.439 46.94-95.58l43.515-87.526 95.119 191.171 10.324 1.62z"></path>
</symbol>
</defs>
</svg>
